<svg xmlns="http://www.w3.org/2000/svg" version="1.1" xmlns:xlink="http://www.w3.org/1999/xlink" xmlns:svgjs="http://svgjs.dev/svgjs" width="100%" height="100%" viewBox="0 0 1000 600"><rect width="1000" height="600" x="0" y="0" fill="#f96167"/><g><rect width="333.3333333333333" height="333.3333333333333" rx="13.333333333333334" ry="13.333333333333334" y="190.41894619150082" fill="#fce77d" transform="matrix(0.7431774100194685,0,0,0.7431774100194685,0,34.622042826146725)" x="168.19671630859372"/><path d="M368.44866134324974 393.18088334773154L368.44866134324974 393.18088334773154Q368.44866134324974 388.0753503615193 366.90844468819137 384.1107186012764Q365.33970550248375 380.1460868410335 361.48916386483774 376.9515634083199Q357.6386222271917 373.7285174449569 350.8502599326751 370.81921931873546Q344.0904201688076 367.90992119251405 333.7652640737865 364.91505547434485L333.7652640737865 364.91505547434485Q322.92670242707925 361.69200951098196 314.19880804841495 357.72737775073904Q305.4709136697507 353.7912685211453 299.2530019882186 348.657213004284Q293.0636128373358 343.5516800180719 289.75499928202515 336.9344529074506Q286.4178631960653 330.31722579682935 286.4178631960653 321.7889891327096L286.4178631960653 321.7889891327096Q286.4178631960653 313.26075246859 289.9546569965698 306.0445522143349Q293.462928266425 298.8283519600798 300.02311031574783 293.46611619802457Q306.5832923650707 288.1038804359694 315.71050217282414 285.0804921871511Q324.83771198057764 282.08562646898196 336.0755890563741 282.08562646898196L336.0755890563741 282.08562646898196Q352.5045667103304 282.08562646898196 363.99914656196995 288.36058321181247Q375.4652038829603 294.60701742399374 381.48345784994774 304.7039932738211Q387.5017118169352 314.77244659299913 387.5017118169352 326.2099813833403L387.5017118169352 326.2099813833403L368.24900362870517 326.2099813833403Q368.24900362870517 317.99549255636214 364.7407323588499 311.6064456909347Q361.2324610889947 305.24592135615643 354.1303509573365 301.59503743305504Q346.9997182950291 297.9156309793044 336.0755890563741 297.9156309793044L336.0755890563741 297.9156309793044Q325.75043296135294 297.9156309793044 319.01911572813475 301.02458682007045Q312.3163210255658 304.1335426608365 309.03623000090437 309.4672558922424Q305.78466150689223 314.77244659299913 305.78466150689223 321.5893314181651L305.78466150689223 321.5893314181651Q305.78466150689223 326.2099813833403 307.75271612168905 329.9749554290386Q309.6922482058367 333.7114069440877 313.8565376806242 336.9344529074506Q318.0208271554117 340.1289763401643 324.49544161278686 342.8386167518412Q330.9415335395128 345.548257163518 339.98317575531854 348.05823986065013L339.98317575531854 348.05823986065013Q352.4189991183827 351.56651113050543 361.43211880353925 355.87341325853913Q370.4737610193451 360.208837917222 376.32087980243716 365.5710736792772Q382.1965211161785 370.9333094413323 385.0487741811014 377.6931492051998Q387.9010272460244 384.4529889690672 387.9010272460244 392.9812256331869L387.9010272460244 392.9812256331869Q387.9010272460244 401.9087777263958 384.30718838422143 409.1249779806509Q380.6848269917693 416.341178234906 373.98203228920033 421.4752337517673Q367.2507150559821 426.5807667379794 357.8668024723856 429.34745221095466Q348.5114124194383 432.08561515328074 336.9597875065002 432.08561515328074L336.9597875065002 432.08561515328074Q326.8342891260237 432.08561515328074 317.0795836439872 429.2904071496563Q307.2963556313014 426.46667661538254 299.3100470495171 420.8762606081335Q291.352260998382 415.2573220702352 286.58899837996063 406.9857881819587Q281.8257357615393 398.7142542936821 281.8257357615393 387.76160252437785L281.8257357615393 387.76160252437785L301.07844394976934 387.76160252437785Q301.07844394976934 395.29155061577444 303.98774207599075 400.65378637782965Q306.89704020221217 406.01602213988485 311.94552812712584 409.52429340974004Q317.0225385826887 413.03256467959534 323.49715304006384 414.6868714572506Q329.94324496678973 416.341178234906 336.9597875065002 416.341178234906L336.9597875065002 416.341178234906Q347.08528588697675 416.341178234906 354.1303509573365 413.54597023128144Q361.14689349704696 410.7222396970077 364.7977774201484 405.53113911884793Q368.44866134324974 400.3115160100389 368.44866134324974 393.18088334773154Z " fill="#f96167" transform="matrix(0.7431774100194685,0,0,0.7431774100194685,0,34.622042826146725)"/><path d="M668.1449116778384 394.68159684928435L668.1449116778384 394.68159684928435Q668.1449116778384 389.7730049383108 666.6641074141928 385.9613050744823Q665.1558808493686 382.1496052106537 661.4538701902545 379.07830747864796Q657.7518595311404 375.9795874454636 651.2253518506282 373.182512725244Q644.7262664712946 370.3854380050245 634.7993934446331 367.5060963812691L634.7993934446331 367.5060963812691Q624.3789189967564 364.40737634808477 615.9876948360978 360.59567648425616Q607.5964706754393 356.81139892160627 601.6184090184996 351.8753847094541Q595.6677696627384 346.9667927984807 592.4867827260181 340.60481892504015Q589.2783734881193 334.2428450515997 589.2783734881193 326.0435769991915L589.2783734881193 326.0435769991915Q589.2783734881193 317.84430894678326 592.6787388342685 310.90646674859164Q596.0516818792391 303.9686245504 602.3588111503224 298.813231928819Q608.6659404214056 293.65783930723785 617.441076798565 290.75107538230384Q626.2162131757242 287.8717337585485 637.0205998401016 287.8717337585485L637.0205998401016 287.8717337585485Q652.8158453189883 287.8717337585485 663.8670326939733 293.9046400178455Q674.8907977677796 299.91012397596387 680.6769033164691 309.61761859319637Q686.4630088651585 319.29769090925026 686.4630088651585 330.294033681878L686.4630088651585 330.294033681878L667.9529555695881 330.294033681878Q667.9529555695881 322.3964109424346 664.5800125246175 316.2538154784231Q661.207069479647 310.1386423155902 654.3789164861698 306.6285877647265Q647.5233411915141 303.09111091268414 637.0205998401016 303.09111091268414L637.0205998401016 303.09111091268414Q627.0937268134402 303.09111091268414 620.6220637352852 306.080141741154Q614.1778229583089 309.0691725696239 611.0242583227672 314.1971428900264Q607.8981159884041 319.29769090925026 607.8981159884041 325.85162089094104L607.8981159884041 325.85162089094104Q607.8981159884041 330.294033681878 609.7902547697291 333.91377743745625Q611.6549712498755 337.5060988918558 615.6586272219544 340.60481892504015Q619.6622831940334 343.6761166570459 625.8871455615807 346.28123526901504Q632.0845856279494 348.8863538809843 640.7774551015729 351.299516384703L640.7774551015729 351.299516384703Q652.7335784154524 354.6724594296736 661.3990255878972 358.8132269076457Q670.0918950615206 362.98141668679636 675.7134668031383 368.13680930837745Q681.3624608459346 373.29220192995854 684.1046909637969 379.7912873092921Q686.8469210816593 386.2903726886258 686.8469210816593 394.489640741034L686.8469210816593 394.489640741034Q686.8469210816593 403.0728210099429 683.3917111331527 410.0106632081345Q679.9090788834676 416.94850540632603 673.4648381064912 421.8845196184782Q666.9931750283363 426.7931115294516 657.9712379405694 429.4530747437781Q648.9767231539811 432.0856156569258 637.8706911766388 432.0856156569258L637.8706911766388 432.0856156569258Q628.1357742582278 432.0856156569258 618.7573472551388 429.39823014142075Q609.3514979508712 426.6834223247371 601.6732536208568 421.30865129372705Q594.022431592021 415.9064579615384 589.442907295191 407.95399061973774Q584.8633829983611 400.00152327793717 584.8633829983611 389.47135962534594L584.8633829983611 389.47135962534594L603.3734362939314 389.47135962534594Q603.3734362939314 396.71084713650237 606.170511014151 401.86623975808345Q608.9675857343705 407.02163237966454 613.8213330429867 410.39457542463515Q618.7025026527816 413.76751846960576 624.9273650203289 415.3580119379659Q631.1248050866976 416.94850540632603 637.8706911766388 416.94850540632603L637.8706911766388 416.94850540632603Q647.60560809505 416.94850540632603 654.3789164861698 414.26111989082096Q661.124802576111 411.5463120741374 664.6348571269747 406.55545325962805Q668.1449116778384 401.53717214394 668.1449116778384 394.68159684928435ZM707.8798260856629 282.08562820985907L725.7043218517678 282.08562820985907L725.7043218517678 430.1660545744222L707.8798260856629 430.1660545744222L707.8798260856629 282.08562820985907ZM721.4538651690812 374.06002636296L721.4538651690812 374.06002636296L714.049843850853 373.75838104999514Q714.1321107543889 363.0636835903323 717.2308307875733 353.95947959902946Q720.302128519579 344.85527560772664 725.8962779600181 338.10938951778553Q731.4904274004571 331.3360811266657 739.2509386340074 327.6340704675516Q747.0114498675576 323.93205980843743 756.4721437741825 323.93205980843743L756.4721437741825 323.93205980843743Q764.1778104053756 323.93205980843743 770.3478281705657 325.98873239683417Q776.5178459357558 328.0728272864095 780.9054141243355 332.59750698088226Q785.292982312915 337.122186675355 787.5964556119194 344.30682958415423Q789.9273512121023 351.49147249295345 789.9273512121023 361.8022577361156L789.9273512121023 361.8022577361156L789.9273512121023 430.1660545744222L771.993166241283 430.1660545744222L771.993166241283 361.61030162786517Q771.993166241283 353.43845587663566 769.5800037375642 348.4750193633049Q767.1668412338454 343.48416054879556 762.5324723346581 341.2355318521485Q757.8981034354708 338.9594808543228 751.1522173455296 338.9594808543228L751.1522173455296 338.9594808543228Q744.5160204603029 338.9594808543228 739.058982525757 341.7565555745423Q733.6019445912111 344.5536302947619 729.7079778238467 349.4622222057353Q725.8140110564822 354.39823641788746 723.647649263371 360.7053656889707Q721.4538651690812 367.0124949600539 721.4538651690812 374.06002636296ZM833.9675669049705 325.85162089094104L834.4611683261858 342.2501569957575L834.4611683261858 430.1660545744222L816.6092502589023 430.1660545744222L816.6092502589023 325.85162089094104L833.9675669049705 325.85162089094104ZM867.0388621263896 325.27575256619L867.0388621263896 325.27575256619L866.9291729216751 341.8662447792568Q864.7353888273853 341.3726433580416 862.7609831425244 341.2355318521485Q860.759155156485 341.09842034625535 858.2637257492304 341.09842034625535L858.2637257492304 341.09842034625535Q852.0937079840402 341.09842034625535 847.3770721813171 343.01798142875896Q842.6604363785939 344.93754251126256 839.3697602371592 348.4201747609477Q836.0790840957245 351.8753847094541 834.2143676155781 356.64686511453453Q832.3222288342531 361.41834551961483 831.7463605095021 367.12218416476844L831.7463605095021 367.12218416476844L826.7280793938141 370.00152578852385Q826.7280793938141 360.56825418307756 828.620218175139 352.2592969259548Q830.512356956464 343.97776197001076 834.4611683261858 337.560943494213Q838.4099796959074 331.14412501841525 844.5251528587403 327.5518035640157Q850.6403260215732 323.93205980843743 859.1412393869463 323.93205980843743L859.1412393869463 323.93205980843743Q861.0608004694498 323.93205980843743 863.5562298767045 324.3708166272954Q866.0790815851378 324.7821511449748 867.0388621263896 325.27575256619ZM884.973047097209 325.85162089094104L902.9072320680283 325.85162089094104L902.9072320680283 430.1660545744222L884.973047097209 430.1660545744222L884.973047097209 325.85162089094104ZM883.6293543394564 298.18251900171066L883.6293543394564 298.18251900171066Q883.6293543394564 293.84979541548824 886.2618952526043 290.86076458701837Q888.9218584669306 287.8717337585485 894.1320956908689 287.8717337585485L894.1320956908689 287.8717337585485Q899.2326437100928 287.8717337585485 901.974873827955 290.86076458701837Q904.744526246996 293.84979541548824 904.744526246996 298.18251900171066L904.744526246996 298.18251900171066Q904.744526246996 302.3232864796827 901.974873827955 305.28489500697395Q899.2326437100928 308.2190812330866 894.1320956908689 308.2190812330866L894.1320956908689 308.2190812330866Q888.9218584669306 308.2190812330866 886.2618952526043 305.28489500697395Q883.6293543394564 302.3232864796827 883.6293543394564 298.18251900171066ZM1009.0589599304772 394.68159684928435L1009.0589599304772 394.68159684928435Q1009.0589599304772 389.7730049383108 1007.5507333656528 385.9613050744823Q1006.0699291020071 382.1496052106537 1002.3404961417145 379.07830747864796Q998.6384854826005 375.9795874454636 992.1394001032669 373.182512725244Q985.6128924227546 370.3854380050245 975.6860193960931 367.5060963812691L975.6860193960931 367.5060963812691Q965.2655449482165 364.40737634808477 956.9017430887366 360.59567648425616Q948.510518928078 356.81139892160627 942.5324572711382 351.8753847094541Q936.5543956141985 346.9667927984807 933.3734086774782 340.60481892504015Q930.1924217407579 334.2428450515997 930.1924217407579 326.0435769991915L930.1924217407579 326.0435769991915Q930.1924217407579 317.84430894678326 933.5653647857284 310.90646674859164Q936.9383078306992 303.9686245504 943.2454371017823 298.813231928819Q949.5525663728656 293.65783930723785 958.3277027500249 290.75107538230384Q967.1028391271842 287.8717337585485 977.9072257915616 287.8717337585485L977.9072257915616 287.8717337585485Q993.7298935716269 287.8717337585485 1004.7536586454333 293.9046400178455Q1015.8048460204184 299.91012397596387 1021.5909515691078 309.61761859319637Q1027.3496348166186 319.29769090925026 1027.3496348166186 330.294033681878L1027.3496348166186 330.294033681878L1008.8395815210481 330.294033681878Q1008.8395815210481 322.3964109424346 1005.4666384760774 316.2538154784231Q1002.0936954311069 310.1386423155902 995.2655424376298 306.6285877647265Q988.4099671429741 303.09111091268414 977.9072257915616 303.09111091268414L977.9072257915616 303.09111091268414Q967.9803527649001 303.09111091268414 961.5086896867451 306.080141741154Q955.0644489097688 309.0691725696239 951.9383065754058 314.1971428900264Q948.7847419398643 319.29769090925026 948.7847419398643 325.85162089094104L948.7847419398643 325.85162089094104Q948.7847419398643 330.294033681878 950.6768807211891 333.91377743745625Q952.5415972013354 337.5060988918558 956.5452531734144 340.60481892504015Q960.5489091454933 343.6761166570459 966.7737715130409 346.28123526901504Q972.998633880588 348.8863538809843 981.664081053033 351.299516384703L981.664081053033 351.299516384703Q993.6202043669125 354.6724594296736 1002.2856515393572 358.8132269076457Q1010.9785210129808 362.98141668679636 1016.6000927545983 368.13680930837745Q1022.2490867973946 373.29220192995854 1024.991316915257 379.7912873092921Q1027.760969334298 386.2903726886258 1027.760969334298 394.489640741034L1027.760969334298 394.489640741034Q1027.760969334298 403.0728210099429 1024.2783370846128 410.0106632081345Q1020.7957048349276 416.94850540632603 1014.3514640579513 421.8845196184782Q1007.8798009797963 426.7931115294516 998.8852861932081 429.4530747437781Q989.8633491054411 432.0856156569258 978.7847394292776 432.0856156569258L978.7847394292776 432.0856156569258Q969.0498225108664 432.0856156569258 959.6439732065988 429.39823014142075Q950.2381239023312 426.6834223247371 942.5598795723167 421.30865129372705Q934.909057543481 415.9064579615384 930.3295332466511 407.95399061973774Q925.750008949821 400.00152327793717 925.750008949821 389.47135962534594L925.750008949821 389.47135962534594L944.2600622453915 389.47135962534594Q944.2600622453915 396.71084713650237 947.057136965611 401.86623975808345Q949.8542116858305 407.02163237966454 954.7079589944467 410.39457542463515Q959.5891286042415 413.76751846960576 965.813990971789 415.3580119379659Q972.0388533393362 416.94850540632603 978.7847394292776 416.94850540632603L978.7847394292776 416.94850540632603Q988.5196563476886 416.94850540632603 995.2655424376298 414.26111989082096Q1002.0114285275711 411.5463120741374 1005.5214830784348 406.55545325962805Q1009.0589599304772 401.53717214394 1009.0589599304772 394.68159684928435ZM1110.2746735807737 412.34155880831736L1110.2746735807737 412.34155880831736L1110.2746735807737 358.62127079939535Q1110.2746735807737 352.45125303420525 1107.806666474698 347.8717287373752Q1105.3660816698002 343.2922044405452 1100.4300674576484 340.7967750332905Q1095.521475546675 338.30134562603587 1088.2819880355187 338.30134562603587L1088.2819880355187 338.30134562603587Q1081.5361019455772 338.30134562603587 1076.4903985287106 340.60481892504015Q1071.4172728106655 342.90829222404443 1068.565353488089 346.66514748551583Q1065.7408564666907 350.4494250481657 1065.7408564666907 354.78214863438814L1065.7408564666907 354.78214863438814L1047.888938399407 354.78214863438814Q1047.888938399407 349.18799919394905 1050.7957023243412 343.6761166570459Q1053.6750439480966 338.19165642132134 1059.1320818826425 333.7218213292058Q1064.5891198171885 329.22456393591165 1072.239941846024 326.5646007215853Q1079.9181861760385 323.93205980843743 1089.351457781485 323.93205980843743L1089.351457781485 323.93205980843743Q1100.7317127706133 323.93205980843743 1109.452004545415 327.77118197344464Q1118.1722963202174 331.63772643963046 1123.135732833548 339.3982376731808Q1128.0991693468786 347.15874890673103 1128.0991693468786 358.8132269076457L1128.0991693468786 358.8132269076457L1128.0991693468786 407.4055445961653Q1128.0991693468786 412.6157818201036 1129.031527586952 418.51157657350757Q1129.9364635258466 424.3799490257328 1131.7737577048142 428.6304057084194L1131.7737577048142 428.6304057084194L1131.7737577048142 430.1660545744222L1113.1540152045295 430.1660545744222Q1111.8103224467768 427.06733454123787 1111.0424980137755 421.9119419196568Q1110.2746735807737 416.7565492980757 1110.2746735807737 412.34155880831736ZM1092.6421339229196 366.9302280565181L1113.3459713127795 366.9302280565181L1113.53792742103 379.46221969514863L1095.521475546675 379.46221969514863Q1087.8980758190178 379.46221969514863 1081.9200141620781 380.6688009470081Q1075.941952505138 381.87538219886744 1071.9108742318808 384.28854470258625Q1067.8523736574443 386.67428490512646 1065.7408564666907 390.2940286607047Q1063.6019169747578 393.9137724162829 1063.6019169747578 398.7400974237205L1063.6019169747578 398.7400974237205Q1063.6019169747578 403.6486893346939 1065.8231233702263 407.7071899091302Q1068.0443297656948 411.76569048356635 1072.541587158989 414.12400838492795Q1077.0114222511047 416.48232628628944 1083.5653522327952 416.48232628628944L1083.5653522327952 416.48232628628944Q1091.7646202852034 416.48232628628944 1098.0169049539295 412.9996940366044Q1104.296611923834 409.5444840880979 1107.9986225829484 404.5262029724099Q1111.7280555432408 399.50792185672196 1112.0022785550273 394.79128605399876L1112.0022785550273 394.79128605399876L1119.6256782826845 403.3744663229078Q1118.9401207532187 407.4055445961653 1115.9510899247489 412.34155880831736Q1112.962059096279 417.2501507192909 1107.9986225829484 421.71998581140645Q1103.0351860696173 426.2172432047006 1096.2344553773191 429.1514294308132Q1089.4611469861993 432.0856156569258 1080.9602336208263 432.0856156569258L1080.9602336208263 432.0856156569258Q1070.3478030646993 432.0856156569258 1062.3953357228984 427.94484817895375Q1054.442868381098 423.8040807009818 1050.0553001925182 416.8113939004329Q1045.6677320039385 409.81870709988414 1045.6677320039385 401.1532599274393L1045.6677320039385 401.1532599274393Q1045.6677320039385 392.76203576678074 1048.9584081453736 386.345217290983Q1052.2490842868078 379.92839881518523 1058.4191020519984 375.65051983132014Q1064.5891198171885 371.3452185462763 1073.254566989633 369.15143445198646Q1081.9200141620781 366.9302280565181 1092.6421339229196 366.9302280565181L1092.6421339229196 366.9302280565181ZM1157.6055654150769 325.85162089094104L1175.5397503858962 325.85162089094104L1175.5397503858962 430.1660545744222L1157.6055654150769 430.1660545744222L1157.6055654150769 325.85162089094104ZM1156.2618726573241 298.18251900171066L1156.2618726573241 298.18251900171066Q1156.2618726573241 293.84979541548824 1158.9218358716507 290.86076458701837Q1161.5543767847985 287.8717337585485 1166.7646140087368 287.8717337585485L1166.7646140087368 287.8717337585485Q1171.8651620279607 287.8717337585485 1174.6348144470016 290.86076458701837Q1177.3770445648638 293.84979541548824 1177.3770445648638 298.18251900171066L1177.3770445648638 298.18251900171066Q1177.3770445648638 302.3232864796827 1174.6348144470016 305.28489500697395Q1171.8651620279607 308.2190812330866 1166.7646140087368 308.2190812330866L1166.7646140087368 308.2190812330866Q1161.5543767847985 308.2190812330866 1158.9218358716507 305.28489500697395Q1156.2618726573241 302.3232864796827 1156.2618726573241 298.18251900171066Z " fill="#fce77d" transform="matrix(0.7431774100194685,0,0,0.7431774100194685,0,34.622042826146725)"/></g></svg>